<?xml version="1.0" encoding="utf-8"?>
<!-- Generator: Adobe Illustrator 23.0.1, SVG Export Plug-In . SVG Version: 6.00 Build 0)  -->
<svg version="1.1" id="swing-lady" xmlns="http://www.w3.org/2000/svg" xmlns:xlink="http://www.w3.org/1999/xlink" x="0px" y="0px"
	 viewBox="0 0 855.3 676" style="enable-background:new 0 0 855.3 676;" xml:space="preserve">
<style type="text/css">
	.st0{fill:#3F3D56;}
	.st1{fill:#6C63FF;}
	.st2{opacity:0.1;enable-background:new    ;}
	.st3{fill:#FFB9B9;}
	.st4{fill:#D0CDE1;}
	.st5{fill:#2F2E41;}
	.st6{fill:#F2F2F2;}
	.st7{fill:#575A89;}
</style>
<title>Tree_swing</title>
<g id="swing">
	<path id="rope1" class="st0" d="M589.3,599c-4.4,0-8-3.6-8-8V366c0-4.4,3.6-8,8-8c1.8,0,3.6,0.6,5.1,1.8l-1.3,1.6
		c-2.6-2.1-6.3-1.7-8.4,0.9c-0.9,1.1-1.3,2.4-1.3,3.8v225c0,3.3,2.7,6,6,6V599z"/>
	<path id="rope2" class="st0" d="M597.3,584.9h-2V366c0-1.8-0.8-3.5-2.2-4.7l1.3-1.6c1.9,1.5,3,3.8,2.9,6.2V584.9z"/>
	<rect id="swing_base" x="540.3" y="579" class="st1" width="98" height="19"/>
</g>
<path id="trunk" class="st0" d="M593.9,292.7c-39.3,20.5-90.8,38.2-106.2,43.3c11.8-3.1,46-7.2,98.9,25.9
	c66.6,41.5,137.8,13.8,137.8,13.8S708.6,406.1,675,408c-33.6,2-121.3-53.4-151-37.6c-29.7,15.8-43.5-4-55.4,35.6
	c-11.9,39.5-33.6,147.6-8.6,208.3l25,60.6H342.8c0,0,51.4-137.1,23.1-221.5c-15.9-47.3-38.1-81.5-46.5-98.9
	c-4.2-8.7-4.8-13.2,0.6-13c3.1,0.1,8.1,1.8,15.6,5c0,0-34.3-33.6-45.5-33.6c-11.2,0-63.9-5.3-81.1-23.1c0,0-24.4-17.1-67.9,25
	s-33,42.2-71.9,38.9C30.9,350.7,0.9,332.2,0,331.6c1.1,0.5,45.8,18.3,73.2,9.2c27.7-9.2,51.4-44.2,75.8-56
	c24.4-11.9,38.9-27.7,71.9-10.5L199.1,223l-6-14l0,0c0,0-7.3-96.2-21.1-102.8c-13.8-6.6-5.3-23.7-31-27c0,0,31.6-4,37.6,17.8
	c5.9,21.8,46.8,139.1,46.8,139.1s25,50.1,52.7,38.2c27.7-11.9-10.5-78.4-10.5-78.4L220.2,174c0,0,35.6-1.3,57.4,19.1
	c21.8,20.4,23.1,86.4,23.1,86.4s54.7,7.9,67.9,37.6c0,0,8.6-26.4-7.9-42.2c-4.1-4-8.4-10.8-12.6-18.9
	c-15.8-31.1-21.5-66.3-16.3-100.7c2.5-16.9,4-33.4,1.3-37.2c-5.9-8.6-31-61.3-33-75.2c-2-13.8,2-42.8,2-42.8s0.7,35.6,8.6,46.8
	c7.9,11.2,30.3,66.6,30.3,66.6s0,69.9,18.5,104.1s54,72.5,52.1,97.6v14.5c0,0,39.5-37.6,36.9-50.1c-2.6-12.5-5.9-42.2-31-60
	c-25-17.8-41.5-46.1-23.7-87c10-23,14.4-35.3,16.3-41.8l-10.4,44.4c0,0-6.6,45.5,11.9,61.3c0,0,0.1,0.1,0.1,0.1
	c18.4,15.8,42.7,44.7,42.7,44.7l-0.1-1.3l-5.2-93.6l1.1,2.5l8.2,18l7.8,17c0,0,36.9-47.5,80.4-63.3C590,104.8,617,49.4,617,49.4
	l36.9-29l-30.3,36.3c0,0-9.2,42.8-61.3,73.2c-52.1,30.3-85.7,75.1-87.7,102.8s-4,52.1-4,52.1s97.6-3.3,119.3-46.1
	c21.8-42.8,39.6-44.8,39.6-44.8L617,230.7l-13.8,31.6c0,0,56.7,1.3,86.3,34.9c29.7,33.6,103.5,43.5,103.5,43.5L751.5,352
	c0,0-39.6-13.2-77.1-37.6S640.7,268.3,593.9,292.7z"/>
<path id="shadow1" class="st2" d="M614.9,202.7c-4.2,18.5-9.1,36.3-16,49.9c-21.8,42.9-119.3,46.1-119.3,46.1s0.5-5.7,1.2-14.6
	c24.8-2,92.5-10.8,110.2-45.6c1.6-3.2,3.1-6.6,4.5-10.2L614.9,202.7z"/>
<path id="shadow2" class="st2" d="M463.2,255.3c0,0-24.4-29-42.8-44.8c-4-3.5-6.9-8.4-8.9-13.9c-0.2-0.4-0.3-0.9-0.5-1.3
	c0.4,0.4,0.9,0.8,1.3,1.2c16.2,13.9,36.9,37.8,41.8,43.6c0.7,0.8,1.1,1.3,1.1,1.3l-5.1-92.4l8.2,18L463.2,255.3z"/>
<path id="shadow3" class="st2" d="M477.3,172c-0.1,16.2-2.3,25.9-2.3,25.9s36.9-47.4,80.4-63.3c2.6-1.6,5.2-3.2,7.8-4.8
	c52.1-30.3,61.3-73.2,61.3-73.2l30.3-36.3l-36.9,29c0,0-27,55.4-70.5,71.2C517.8,131.4,491.2,156.9,477.3,172z"/>
<path id="shadow4" class="st2" d="M420.3,329.1v14.5c0,0,39.6-37.6,36.9-50.1c-2-9.6-4.4-29.2-16.7-45.8c5.5,12.6,7.2,24.9,8.7,31.8
	c1.9,9-17.9,30.8-29.3,42.5C420.4,324.3,420.5,326.7,420.3,329.1z"/>
<path id="swingtrunk" class="st2" d="M587.7,361.9c-21.7-13.5-40.2-20.8-55.4-24.5c-15.9,6-29,10.4-35.5,12.6
	c11.8-3.1,46-7.1,98.9,25.9c41.5,25.9,84.8,24.9,111.6,20.4c7.4-5.6,13.6-12.6,18.2-20.6C725.4,375.7,654.2,403.4,587.7,361.9z"/>
<path id="shadow5" class="st2" d="M399.4,201.5c-5.3-13-6.2-28.5-0.1-46.7c-0.1-6.6,0.3-13.2,1.1-19.7l10.4-44.4
	c-1.9,6.4-6.3,18.8-16.3,41.8C381.8,161.6,386.6,184.4,399.4,201.5z"/>
<path id="shadow6" class="st2" d="M690.5,297.3c-20.6-23.3-54.1-31.1-72.8-33.7l-5.6,12.7c0,0,56.7,1.3,86.4,34.9
	c16.4,18.6,46.5,30,70,36.4l25.5-6.9C794,340.8,720.2,330.9,690.5,297.3z"/>
<path id="shadow7" class="st2" d="M287.2,288.2c27.7-11.9-10.5-78.4-10.5-78.4l-1-0.5c9.5,20.1,23.4,56.5,3.6,64.9
	c-18.5,7.9-35.8-11.8-45.3-25.8c0.3,1,0.5,1.5,0.5,1.5S259.5,300.1,287.2,288.2z"/>
<path id="shadow8" class="st2" d="M377.5,331.1c0,0,8.3-25.7-7.3-41.6c3.8,13.7-0.7,27.6-0.7,27.6c-10.2-22.9-45.2-32.9-60.6-36.2
	c0.6,7.6,0.7,12.6,0.7,12.6S364.3,301.4,377.5,331.1z"/>
<path id="shadow9" class="st2" d="M202.1,223c0,0-1.1,0-3,0l-6-14c0.6,0,1,0,1,0s-4.6-60.7-13.4-89c0.1,0.1,0.2,0.1,0.3,0.2
	C194.9,126.7,202.1,223,202.1,223z"/>
<path id="shadow10" class="st2" d="M356.6,675c12.1-37,41.1-139.4,18.3-207.5c-9.9-29.4-19-48.1-26.8-60.1
	c5.8,11.3,12.1,26.3,18.8,46.1c28.3,84.4-23.1,221.5-23.1,221.5H356.6z"/>
<path id="shadow11" class="st2" d="M344.5,360.7c-8-3.5-16.5-5.6-25.1-6.1c-4.2-8.7-4.8-13.2,0.6-13c1.5,0.3,3,0.6,4.5,1
	C335.1,351.5,344.5,360.7,344.5,360.7z"/>
<path id="shadow12" class="st2" d="M166.1,99.7c0.8,1.3,1.7,2.4,2.7,3.5C168,101.9,167.1,100.8,166.1,99.7z"/>
<path id="shadow13" class="st2" d="M286.5,207.1c1,1,2,2,2.9,3.1c-2.9-6.9-6.5-12.9-10.9-17.1c-21.8-20.4-57.3-19.1-57.3-19.1
	l44.6,20.5C273.4,197.3,280.5,201.6,286.5,207.1z"/>
<path id="shadow14" class="st2" d="M333.9,118c2.7,3.9,1.2,20.4-1.3,37.2c-5.2,34.5,0.5,69.7,16.3,100.7c2.1,4.2,4.4,8.2,7,12.1
	c-15.1-30.6-20.4-65.1-15.4-98.8c2.5-16.9,4-33.4,1.3-37.2c-5.9-8.6-31-61.3-33-75.1c-0.6-5.4-0.7-10.8-0.4-16.2
	C303.4,26.1,302.9,0,302.9,0s-4,29-2,42.8S327.9,109.4,333.9,118z"/>
<path id="shadow15" class="st2" d="M395.7,26.9c-0.3-1.3-0.7-2.6-1.2-3.8C394.5,23.1,395,24.5,395.7,26.9z"/>
<path id="shadow16" class="st2" d="M162.9,93.3c5.8,0.7,12.5,2.5,17.6,6.6c-0.3-1.1-0.6-2.1-0.9-3C173.7,75.1,142,79.1,142,79.1
	C156.3,80.9,160,87.1,162.9,93.3z"/>
<path id="leafgroundshadow" class="st0" d="M784.5,641.1c-9.8,15.1-7.1,34.3-7.1,34.3s18.6-5.3,28.5-20.3
	c9.8-15.1,7.1-34.3,7.1-34.3S794.3,626.1,784.5,641.1z"/>
<path id="leafground" class="st1" d="M791.9,643.8c-0.8,18-14.1,32-14.1,32s-12.1-15.1-11.3-33.1s14.1-32,14.1-32
	S792.7,625.8,791.9,643.8z"/>
<g id="human">
	<path class="st3" d="M618.7,530c0,0,11.3-11.9,15.9-9.5s-13.3,13-13.3,13L618.7,530z"/>
	<path class="st2" d="M618.7,530c0,0,11.3-11.9,15.9-9.5s-13.3,13-13.3,13L618.7,530z"/>
	<path class="st4" d="M584.2,504.1c0,0-4.2,7.5-3.1,15.5c1.1,8,11,33.8,14.4,33.4S624,534,624,534l-4.8-6.7l-18.3,11.1
		C600.9,538.5,598.2,498.8,584.2,504.1z"/>
	<path class="st5" d="M652.1,522.3l-28.5,15.7c-0.6,0.4-1.5,0.2-1.9-0.4c0-0.1-0.1-0.1-0.1-0.2l-7-14.6c-0.3-0.9,0.1-1.8,0.9-2.2
		l23.7-12.2c0.6-0.4,1.4-0.2,1.8,0.3l11.8,11.2C653.3,520.7,653,521.7,652.1,522.3C652.2,522.2,652.1,522.2,652.1,522.3z"/>
	<polygon class="st1" points="650.2,520.1 623.5,535.4 616.3,522.6 639.3,510.1 	"/>
	
		<ellipse transform="matrix(0.6407 -0.7678 0.7678 0.6407 -170.2966 667.0309)" class="st6" cx="627.5" cy="515.5" rx="0.4" ry="0.3"/>
	
		<ellipse transform="matrix(0.6407 -0.7678 0.7678 0.6407 -176.8073 679.3759)" class="st6" cx="637.4" cy="528.6" rx="0.3" ry="0.2"/>
	<path class="st2" d="M584.2,504.1c0,0-4.2,7.5-3.1,15.5c1.1,8,11,33.8,14.4,33.4S624,534,624,534l-4.8-6.7l-18.3,11.1
		C600.9,538.5,598.2,498.8,584.2,504.1z"/>
	<path class="st3" d="M611.1,532.3c0,0,12.8-10.2,17.1-7.3c4.3,3-14.9,11.1-14.9,11.1L611.1,532.3z"/>
	<circle class="st3" cx="594" cy="478.9" r="12.4"/>
	<path class="st3" d="M636.7,565.1c0,0,13.2,1.7,12.8,9.8s-10.2,41.8-10.2,41.8l-0.9,13.2c0,0,0.9,22.2-1.7,21.8
		c-2.6-0.4-8.5-15.8-8.5-15.8s-7.3-4.7-3.8-9s6-3.8,5.1-8.5s-0.4-24.3,2.1-30.3c2.6-6,4.1-9.3,4.1-9.3l-8.3-0.5L636.7,565.1z"/>
	<path class="st2" d="M636.7,565.1c0,0,13.2,1.7,12.8,9.8s-10.2,41.8-10.2,41.8l-0.9,13.2c0,0,0.9,22.2-1.7,21.8
		c-2.6-0.4-8.5-15.8-8.5-15.8s-7.3-4.7-3.8-9s6-3.8,5.1-8.5s-0.4-24.3,2.1-30.3c2.6-6,4.1-9.3,4.1-9.3l-8.3-0.5L636.7,565.1z"/>
	<path class="st3" d="M637.6,567.3c0,0,12.8,3,14.1,11.5s7.7,33.7,7.7,33.7l6.8,15.8c0,0,10.7,19.2,6,18.8s-11.1-9.8-13.2-9.8
		s-8.5-2.6-8.1-4.3c0.4-1.7,3.4-6.8,3.4-6.8l-10.3-18c-2-3.5-3.5-7.2-4.5-11.1c-1.1-4.2-2.3-9.4-2.3-11c0-3-8.5-4.3-8.5-4.3
		L637.6,567.3z"/>
	<path class="st5" d="M595.7,540l6,17.1c0,0,9.4,2.6,16.2,4.7s19.6-0.9,20.9,4.3s-2.6,14.1-6.4,16.2c-3.8,2.1-6,4.3-18.3,0.9
		s-41.8-4.3-41.8-4.3c-2.9,1.7-6.1,2.7-9.4,3c-5.5,0.4-6.8,0.9-8.5-0.4s0.9-1.3,1.7-4.7c0.9-3.4,1.3-2.1,5.1-6s6.8-15.4,9-19.2
		s3.4-11.5,3.4-11.5L595.7,540z"/>
	<path class="st3" d="M594.9,489.2c-3.1,2.3-5,5.9-5.1,9.8c0,6.4-12.8-6.8-12.8-6.8s6.8-8.5,6.8-11.1S594.9,489.2,594.9,489.2z"/>
	<path class="st4" d="M578.7,486.6c0,0,7.7,3,9.4,7.3s8.1,13.2,8.1,13.2s9,9.4,6,19.6c-3,10.2-5.5,12.8-5.5,14.5
		c0,1.7-4.3,4.7-7.7,4.3c-3.4-0.4-16.2-2.1-17.1-3.8c-0.9-1.7-6-26-2.6-35C572,499.8,575.2,493.1,578.7,486.6z"/>
	<path class="st5" d="M597.6,479.5c2.8,0.7,5.5-1.1,7.8-2.9c1.3-1,2.7-2.4,2.3-4c-0.4-1.4-2-2.2-2.3-3.7c-0.2-1,0.4-2,0.5-3
		c-0.1-1.6-1-3-2.5-3.6c-1.3-0.7-2.9-1-4.3-1.7c-2.1-1-3.9-2.8-6.1-3.4c-3.1-0.8-6.2,0.9-9.4,1.1c-1.9,0.1-3.9-0.3-5.8,0
		c-3.7,0.8-6.5,4-6.6,7.8c0,1.4,0.2,2.9-0.6,4c-0.3,0.4-0.7,0.7-1.1,1c-2.8,2.3-4.1,6.1-4.3,9.8c-0.1,1.8,0.3,4,1.9,4.7
		c0.9,0.3,1.8,0.4,2.7,0.4c0.9,0,1.8,0.4,2.4,1.1c0.7,1.3-0.4,3.2,0.6,4.3c0.7,0.8,2.1,0.6,3-0.2s1.4-1.8,2.2-2.5
		c1.5-1.5,3.8-1.8,6-2c0.6,0,1.2-0.2,1.7-0.6c0.4-0.4,0.6-0.9,0.7-1.5c0.3-1.3,0.3-2.6,0-3.9c-0.1-0.4-0.2-0.8,0-1.2
		c0.1-0.3,0.4-0.5,0.6-0.7c1.3-1,3.6-2.4,5.3-2.2C594.2,477.1,595.7,479,597.6,479.5z"/>
	<path class="st4" d="M580.4,502c0,0-5.1,6.8-5.1,14.9c0,8.1,6.4,35,9.8,35s30.7-14.9,30.7-14.9l-3.8-7.3l-19.6,8.5
		C592.3,538.3,594.9,498.6,580.4,502z"/>
	
		<ellipse id="hair-ribbon" transform="matrix(0.7797 -0.6262 0.6262 0.7797 -168.841 462.1376)" class="st1" cx="572.3" cy="471" rx="1" ry="3"/>
</g>
<rect id="ground" x="49.3" y="674" class="st0" width="806" height="2"/>
<path id="leaf1" class="st0" d="M488.5,641.1c-9.8,15.1-7.1,34.3-7.1,34.3s18.6-5.3,28.5-20.3c9.8-15.1,7.1-34.3,7.1-34.3
	S498.3,626.1,488.5,641.1z"/>
<path id="leaf2" class="st1" d="M495.9,643.8c-0.8,18-14.1,32-14.1,32s-12.1-15.1-11.3-33.1s14.1-32,14.1-32
	S496.7,625.8,495.9,643.8z"/>
<path id="leaf3" class="st0" d="M326.7,646.8c4.7,17.4,20.8,28.1,20.8,28.1s8.5-17.4,3.8-34.8c-4.7-17.4-20.8-28.1-20.8-28.1
	S322,629.5,326.7,646.8z"/>
<path id="leaf4" class="st1" d="M333.6,643.1c12.9,12.6,14.5,31.9,14.5,31.9s-19.3-1.1-32.2-13.6c-12.9-12.6-14.5-31.9-14.5-31.9
	S320.7,630.6,333.6,643.1z"/>
<path id="leaf5" class="st1" d="M290.9,172c-1.1,18-14.7,31.7-14.7,31.7s-11.8-15.4-10.7-33.3s14.7-31.7,14.7-31.7
	S292,154.1,290.9,172z"/>
<path id="leaf6" class="st1" d="M149,58.5c15.2,9.6,20.8,28.1,20.8,28.1s-19.1,3-34.4-6.6s-20.8-28.1-20.8-28.1S133.7,48.9,149,58.5
	z"/>
<path id="leaf7" class="st1" d="M115,277.5c15.2,9.6,20.8,28.1,20.8,28.1s-19.1,3-34.4-6.6s-20.8-28.1-20.8-28.1
	S99.7,267.9,115,277.5z"/>
<path id="leaf8" class="st1" d="M424.5,90.5c-4.6,17.4-20.6,28.3-20.6,28.3s-8.6-17.4-4-34.8s20.6-28.3,20.6-28.3
	S429.1,73.1,424.5,90.5z"/>
<path id="leaf9" class="st1" d="M569.3,104.1c-5.4,17.2-21.9,27.3-21.9,27.3s-7.8-17.7-2.4-34.9S567,69.2,567,69.2
	S574.7,86.9,569.3,104.1z"/>
<g id="human2">
	<title>complete_task</title>
	<ellipse class="st2" cx="528.5" cy="351.8" rx="32.5" ry="6.4"/>
	<rect x="525.6" y="227.2" class="st0" width="5.5" height="46.8"/>
	<path class="st5" d="M509,203.5c1-0.9,2.2-1.5,3.4-2c7.6-3.3,15.6-5.4,23.7-6c7.1-0.6,14.7,0.1,20.2,5.3c0.9,0.7,1.6,1.7,2,2.8
		c0.7,1.8,0.5,3.8,0.3,5.7c-0.1,0.7-0.2,1.5-0.5,2.1c-0.7,1.7-2.6,2.2-4.2,2c-1.6-0.2-3.1-1-4.6-1.3c-1-0.2-1.9-0.3-2.9-0.3
		l-9.8-0.6c-6.1-0.4-12.3-0.8-18.3,0.7c-1.8,0.4-3.6,1.1-5.3,2.1c-1.4,0.9-2.3,2.2-3.6,0.5C507.3,211.6,506,206.2,509,203.5z"/>
	<path class="st6" d="M524.2,208.6c0,0,13.2-6.9,18.2,1.1c5,8-2.7,4.8-2.7,4.8l-8.6,3.2l-9.6-2.1L524.2,208.6z"/>
	<path class="st3" d="M524.9,203.6c0,0,1.8,10.1,0.5,12.8c-1.4,2.7,7.7,6.4,7.7,6.4l8.6-4.3c0,0-2.3-16.5,0-19.7L524.9,203.6z"/>
	<path class="st2" d="M524.9,203.6c0,0,1.8,10.1,0.5,12.8c-1.4,2.7,7.7,6.4,7.7,6.4l8.6-4.3c0,0-2.3-16.5,0-19.7L524.9,203.6z"/>
	<path class="st7" d="M516.3,325.2c1.3,2.9,2.1,6.1,3,9.2c0,0.4,0.4,0.7,0.7,0.6c0,0,0,0,0.1,0l8.1,0c1,0,2.3-0.4,2.3-1.5
		c0-0.8-0.7-1.3-1.3-1.9c-1.5-1.5-1.9-3.9-2.5-6.1c-1.2-4.2-3.5-7.8-6.6-10.3c-0.4-0.4-0.9-0.7-1.4-0.8c-0.5-0.1-1-0.1-1.5,0.1
		c-1.4,0.3-6.7,1.5-5.7,3.9c0.4,1,2,2.1,2.7,3.1C515.1,322.7,515.8,323.9,516.3,325.2z"/>
	<path class="st7" d="M544.5,314.2c-0.3,0.7-0.6,1.4-1,2c-1.2,2.3-2.6,4.4-3.6,6.7c-0.7,1.4-1.3,3-1.3,4.7c-0.1,1.6,0.4,3.4,1.5,4.4
		c1.2,1,2.8,1.1,4.2,0.8c1.5-0.2,2.9-0.7,4.4-0.6c-0.5-3.3,1.9-6.2,2.5-9.4c0.2-0.9,0.2-1.9,0.4-2.8c0.2-0.8,0.5-1.6,0.9-2.4
		c1.2-2.7,2-5.6,2.5-8.5c0.1-0.4-7.2-0.4-7.9-0.2C545,309.4,545.3,312.2,544.5,314.2z"/>
	<path class="st5" d="M488.6,262.6c-2.1,3.8-1.6,8.8-0.1,13c1.5,4.2,3.8,7.8,5.3,11.9c1,2.6,1.7,5.4,2.9,7.9
		c1.4,3.1,3.5,5.9,4.4,9.3c0.6,2.2,0.7,4.5,1.7,6.5c0.6,1,1.3,2,2,2.9c2.1,2.8,3.7,6.1,4.6,9.7c0.9-3.1,3.6-5.1,6.3-5.8
		c2.7-0.7,5.6-0.2,8.4,0.2c-1.5-2.8-3.1-5.6-4-8.8c-0.9-3.1-1.2-6.3-1.8-9.5c-1.2-6.5-3.9-12.4-6.5-18.3l13.4-1.2
		c2.2-0.3,4.4-0.4,6.6-0.3c3.5,0.2,6.8,1.2,10.3,1.6c3.4,0.5,7.1,0.3,10.1-1.5c-5.9,9.8-8.9,21.6-8.7,33.6
		c4.8-4.4,11.8-3.4,15.6,2.3c0.5,0.7,0.9,1.5,1.2,2.3c5.2-8.4,4.6-20.1,8.8-29.3c0.9-1.9,1.9-3.7,2.8-5.5c1.8-3.7,3.1-7.6,4.5-11.5
		c1.2-3.5,2.3-7.4,1.2-10.9c-0.5-1.3-1.1-2.5-2-3.6c-2.4-3.1-5.7-5.4-9.3-5.5c-5.5-0.1-10,4.6-14.8,7.7c-5.7,3.6-12.3,5.1-18.7,4.5
		c-6.6-0.5-12.9-3.1-19.2-5.3c-3.1-1.2-6.3-2.1-9.6-2.9c-2.7-0.6-5.3,0.1-7.9,0.9C493.2,258,490.3,259.6,488.6,262.6z"/>
	<path class="st3" d="M545.8,193.4c0,8.8-6.1,16-13.6,16c-0.8,0-1.6-0.1-2.4-0.3c-7.4-1.6-12.3-9.9-11-18.6
		c1.3-8.7,8.4-14.4,15.9-12.9C541.1,179.1,545.8,185.7,545.8,193.4L545.8,193.4z"/>
	<path class="st6" d="M524.2,208.6c0,0,2.5,1.3,3.4,2.4s3.6,6.9,8.2,3.2c4.5-3.7,5-5.9,6.4-5.9c1.4,0,3.2,3.2,3.2,3.2l12.5,43.9
		c-3.4,4.5-7.3,8.3-11.6,11.4c-7.3,5.3-15.9,8-20,5.9c-4.1-2.1-11.8-3.7-13.2-8c-1.4-4.3-3.6-17-3.6-17l6.4-32.5L524.2,208.6z"/>
	<path class="st5" d="M522.4,253c1-2.5,1.1-5.3,1.2-8.1c0.1-2.7,0.1-5.5-0.2-8.2c-0.4-3.6-1.4-7-2-10.5c-0.5-3.1-0.8-6.2-0.8-9.4
		c0-1.4,0.1-3,0.8-4.2c0.5-0.8,1.2-1.5,1.5-2.4c0.6-1.8-0.8-3.8-2.4-4.5c-1.8-0.9-3.9-0.8-5.9-0.3c-1.9,0.6-3.7,1.6-5.5,2.7
		c-1.3,0.7-2.6,1.5-3.6,2.7c-1.4,1.7-2,4.1-2.5,6.4c-0.4,1.8-0.8,3.8-0.5,5.6c0.5,3,2.6,5.3,3.7,8.1c1.3,3.2,1.2,7,0.7,10.6
		s-1.4,7-1.7,10.6s0.2,7.4,2.1,10.2c0.8,1.1,2.9,3.9,4.3,3.5c1.1-0.2,2.7-3.1,3.6-4C517.8,259.2,520.9,256.8,522.4,253z"/>
	<path class="st5" d="M546.2,206.9c0,3-1.1,5.8-2.4,8.3c-1.3,2.5-2.9,4.9-3.8,7.7c-1.2,3.4-1.4,7.2-0.7,10.8c0.3,1.2,0.6,2.4,1,3.6
		l2.5,8c0.3,1.3,0.8,2.5,1.4,3.6c0.6,0.8,1.2,1.6,2,2.2c1.9,1.8,4.1,3.1,6.4,3.9c2.3,0.7,4.9,0.7,7.1-0.5c0.2-10.8,1.7-21.6,4.4-32
		c0.5-1.9,1-3.9,0.7-5.9c-0.4-2.2-1.9-3.8-3.4-5.3c-4.4-4.6-9.2-9.4-15-10C543.1,201,546.2,204.7,546.2,206.9z"/>
	<path class="st3" d="M516.4,268.8c0.3,0.8,0.6,1.7,0.9,2.5c0.5,1.1,1.1,2,1.9,2.9c3,3.9,6.8,7.9,11.3,8.1c0.5,0,0.9,0,1.3-0.2
		c0.8-0.4,1.3-1.4,1.4-2.4c0.3-2.1-0.5-4.1-1.2-6c-1.7-4.1-3.6-8.3-6.7-10.9c-3.1-2.6-7.3-3.2-10.9-1.9c-1.6,0.6-4.4,1.6-2.2,3.4
		C513.8,265.6,515.4,266.6,516.4,268.8z"/>
	<path class="st3" d="M536,216.7c-0.6-1.5-1.1-2.9-2.1-4c-0.9-0.9-2.1-1.6-3.3-1.9c-1.6-0.5-3.2-0.8-4.8-0.8c-1.9,0-4.2,0.6-5,2.6
		c-0.6,1.6-0.1,3.5,0.5,5.2c0.3,0.8,0.7,1.6,1.3,2.1c0.8,0.7,1.9,0.6,2.9,0.9c1.5,0.3,2.9,1.3,4.3,2.3l3.4,2.4l5.8,4.1
		c-0.2-0.1-0.1-4.8-0.3-5.5C538.2,221.5,536.9,219,536,216.7z"/>
	<path class="st5" d="M519.1,333.2c-1.4,2.2-1.1,5.2-2.3,7.5c-1,2-3,3-4.3,4.8c-0.4,0.6-0.8,1.2-1.1,1.9c-1.2,2.4-2.2,5.4-1,7.8
		c1,1.9,3,2.7,4.8,3.2c2.3,0.6,4.8,1.2,7.1,0.7s4.7-2.2,5.5-4.8c0.2-0.7,0.4-1.3,0.6-1.9c1.3-2.9,5.3-3,6.6-5.9
		c0.9-2,0.1-4.5-0.8-6.6l-2.6-6.4c-0.9-2.1-4.3-0.9-6.1-1.4C523.3,331.2,520.8,330.5,519.1,333.2z"/>
	<path class="st5" d="M539,327.7c-1.1,0.9-1.8,2.3-2.3,3.7c-1.3,3.4-1.7,7.2-2.1,10.9c-0.2,1.5-0.3,3-0.1,4.5c0.5,3,2.9,5.3,5.4,6.2
		c2.5,0.9,5.2,0.8,7.9,0.6c0.8,0,1.7-0.1,2.5-0.6c1.3-0.9,1.8-2.9,1.6-4.6c-0.2-1.8-1-3.3-1.8-4.8c-0.8-1.5-1.6-3.1-1.9-4.8
		c-0.4-3,0.7-7.3-0.8-10C545.8,326.2,541.1,326,539,327.7z"/>
	<path class="st5" d="M545.4,185.1c-0.2-1-0.8-1.8-1.5-2.3c0-1-0.1-2-0.3-3c-0.8-2.9-2.8-2.7-4.6-4c-0.8-0.5-0.8-1-1.2-1.9
		c-0.5-1.2-1.4-2.2-2.4-2.8c-1.2-0.9-2.4-1.8-3.8-1.9c-2.9-0.2-5.2,3-8,4c-1.2,0.5-2.6,0.5-3.8,0.9c-1.2,0.4-2.5,1.5-2.7,3
		c-0.1,0.7,0.1,1.4,0,2.1c-0.2,1.4-1.2,2.4-1.9,3.5c-1.5,2.5-1.4,6.1-0.1,8.8c0.3,0.6,0.6,1.1,0.9,1.6c0.1,1.3,0.4,2.6,0.9,3.7
		c1.2,2.7,3.3,4.8,5.5,6.5c-0.2-0.9-0.3-1.8-0.3-2.8c0-0.3,0-0.6,0.1-0.9c0.2-0.6,0.9-0.8,1.4-1.1c1-0.7,1.4-2.2,1.5-3.6
		s-0.2-2.8-0.1-4.1c0-0.6,0.2-1.2,0.7-1.7c0.4-0.3,0.8-0.4,1.2-0.3c2.1-0.1,4.3-0.1,6.1-1.3c0.6-0.4,1.2-0.9,1.9-1.1
		c1.6-0.5,3.2,0.8,4.1,2.4c0.9,1.6,1.4,3.5,2.2,5.1c0.8,1.6,2.3,3.1,3.9,2.9c0.2,0,0.4-0.1,0.5-0.3c0.1-0.1,0.1-0.3,0.1-0.5l0.1-7.2
		C545.8,187.6,545.7,186.3,545.4,185.1z"/>
	<path class="st5" d="M502.3,223c-1.3,2.2-2.8,4.4-3.5,7c-0.4,1.5-0.6,3.1-0.9,4.7c-1,5.2-3.9,9.8-4.2,15.1c-0.1,1.2,0,2.4,0.4,3.5
		c0.8,2.1,2.9,3.3,4.8,4c1.9,0.7,4,1.2,5.5,2.7c0.8,0.9,1.5,1.8,2.1,2.8c2.5,3.6,5.9,6.3,9.7,7.7c-0.3-2.4-0.4-5.3,1.2-6.8
		c0.9-0.8,2.1-1,3.2-1.1l5.3-0.5c-3.6-4-7.5-7.6-11.7-10.7c-1.5-1.1-3.1-2.2-3.7-4.1c-0.4-1.2-0.4-2.5-0.4-3.7c0-4.6-0.4-9.3-1-13.8
		c-0.4-3.2-1-6.3-1.7-9.5c-0.2-0.9-1.3-4.8-2.6-3.9c-0.3,0.2-0.6,2.7-0.8,3.2C503.4,220.8,502.9,222,502.3,223z"/>
	<path class="st5" d="M563.6,214.5l2.2,5.3c1,2.2,1.5,4.7,1.4,7.2l0.1,15.9c0,2.1,0,4.3-0.4,6.3c-0.1,0.7-0.4,1.3-0.8,1.9
		c-0.4,0.5-0.8,0.9-1.3,1.2c-4.1,3-9.5,4.7-13.8,2.2c-1-0.6-1.9-1.3-2.8-2.2c-1.7-1.5-3.5-3-4.8-5.1c-1.4-2.1-2.1-4.6-3-7.1
		c-1.6-4.3-3.8-8.4-6.3-12.1c-0.4-0.5-0.8-1.1-0.8-1.8c0-1.4,1.4-2.1,2.5-2.6c1.9-0.9,3.7-2.7,4-5c4,6.1,8.4,12.6,14.7,14.9
		c0.3,0.2,0.7,0.1,0.9-0.2c0.1-0.1,0.1-0.3,0.1-0.4c0.4-1.8,0.5-3.6,0.7-5.3c0.5-3.2,1.4-6.4,2.7-9.3
		C559.7,216.7,562.1,210.8,563.6,214.5z"/>
	<path class="st2" d="M509.6,229.8c0.1,3.8-0.6,7.5-2,10.9c-0.4,0.8-0.6,1.6-0.8,2.4c-0.2,1.8,0.6,3.5,1.6,4.9c2,2.7,4.5,4.8,7.4,6"
		/>
	<path class="st2" d="M556.9,226.7c-0.3,1,0,2.1,0.2,3.2c0.7,3,1.1,6.1,1,9.2c0,0.2-0.1,0.4-0.2,0.4c0,0-0.1,0-0.1,0
		c-1,0.1-2.3,0.1-3-0.8"/>
</g>
<title>annotation</title>
<g id="human3">
	<path class="st4" d="M771.1,668.4c-13.1,10.2-701.3,9.3-700.3,0C83.9,658.2,772.1,659.1,771.1,668.4z"/>
	<polygon class="st3" points="174.6,653.2 164.9,652.4 168.2,669.8 179.2,664.4 	"/>
	<polygon class="st5" points="263.6,620.9 240.9,594.7 228,606.6 202.5,643.2 205.4,648.6 236.4,623.6 257.4,656.3 277.5,644.4 	"/>
	<polygon class="st2" points="263.6,620.9 240.9,594.7 228,606.6 202.5,643.2 205.4,648.6 236.4,623.6 257.4,656.3 277.5,644.4 	"/>
	<path class="st3" d="M265.5,638.2l-2.9,2.7l-23.6-9.6l-5.5-2.7l-11,2.7c0,0,0-10.8,10.4-10.4l10.7,3.1l12.6,1.2L265.5,638.2z"/>
	<polygon class="st5" points="286.6,666.7 279.4,672.1 271,672.1 231.9,654.7 174.6,667.1 173,652.4 225.4,625.1 271.4,643.2 	"/>
	<path class="st3" d="M240.6,598.2l-4.9,1.2l-1.1-1.5c-1.7-2.4-2.1-5.7-0.9-8.5l0,0l13.6-21.2c0,0,3.9-10.4,10-6.2
		c6.1,4.2-5.2,11.2-5.2,11.2l-6.8,12.7l0.6,6.5L240.6,598.2z"/>
	<ellipse class="st3" cx="271.4" cy="558.1" rx="12.6" ry="15"/>
	<path class="st3" d="M265.7,569.1l5.8,16.6l13.9-6.9c0,0-4.5-13.1-4.5-13.5S265.7,569.1,265.7,569.1z"/>
	<path class="st7" d="M304,618.1c0,9.1-1.2,18.1-3.6,26.7l-0.9,3.5l-4.5,24.6l-4.9,1.5l-3.6-5.4l-7.1-6.2l-5.2-10l-4.4-8.8l-1.4-2.7
		l-4.9-28.9l-18.4-12.3l-6.1-1.2l1.3-4.2l5.5-8.9l5.5-0.8l1.6-1.5l1.3,0.8l5.2-3.5l1.6,0.8l9.5,1l5.7-1.4l8.3-5.3l3.4,0.7l11.6,11.5
		C302.5,597.7,304,607.9,304,618.1z"/>
	<path class="st5" d="M167.9,659.2c0,0,2.9-5.8,1.7-6.5c-1.2-0.7-6.4-3.4-6.4-3.4l-7.6-3c0,0-11-19.5-11.2-2.5c-0.2,16.9,8,21,8,21
		s7.4,18.8,11.5,15.8c4.2-3,8.3-13.2,8.3-13.2S164.7,662.5,167.9,659.2z"/>
	<polygon class="st2" points="300.5,614.7 288.2,624.3 269.8,644 268.4,641.3 264.6,618.2 265.5,618.2 275.6,596.2 	"/>
	<polygon class="st7" points="275.6,593.9 265.5,615.9 262,615.9 259.7,623.6 254.5,625.1 268.4,643.2 288.2,622 300.5,612.4 	"/>
	<path class="st5" d="M261.5,547l-1.4,0.6c-0.9-0.7-1.1-2.1-0.5-3.2c0,0,0,0,0,0l-2.5-0.1c6.3-10,18.3-12.1,26.7-4.5
		c0.6,0.6,1.2,1.2,1.8,1.8c0.1-0.5,1.4,0.4,1.9,1.4c0.2-0.8,1.3,2.9,1.8,5.6c0.2-0.9,0.9,0.5,0.3,1.9c0.4-0.1,0.6,1.2,0.3,1.9
		c0.4-0.3,0.4,1.2-0.1,2.2c0.6-0.1-5.1,10.5-7.4,16.6c-0.7-3.7-1.4-7.5-3.6-10.3c-0.4-0.5-0.8-0.9-1.2-1.3l-2.2-2.3
		c-2.5-2.7-4.8-5.9-8.2-6.9c-2.3-0.7-3.8-0.8-2.5-3.9c-1.1,0.6-2.2,1.4-3.3,1.9C261.4,547.9,261.6,547.4,261.5,547z"/>
	<ellipse class="st3" cx="277.7" cy="559.8" rx="2.3" ry="2.7"/>
</g>
</svg>
