<?xml version="1.0" encoding="utf-8"?>
<!-- Generator: Adobe Illustrator 23.0.1, SVG Export Plug-In . SVG Version: 6.00 Build 0)  -->
<svg version="1.1" id="swing-lady" xmlns="http://www.w3.org/2000/svg" xmlns:xlink="http://www.w3.org/1999/xlink" x="0px" y="0px"
	 viewBox="0 0 855.3 676" style="enable-background:new 0 0 855.3 676;" xml:space="preserve">
<style type="text/css">
	.st0{fill:#3F3D56;}
	.st1{fill:#6C63FF;}
	.st2{opacity:0.1;enable-background:new    ;}
	.st3{fill:#2F2E41;}
	.st4{fill:#F2F2F2;}
	.st5{fill:#FFB9B9;}
	.st6{fill:#FBBEBE;}
	.st7{fill:#6B6B84;}

	
	#swing:hover{
		fill: red;
	}
	@keyframes swing {
          0% {
            transform: rotateZ(15deg);
          }

          50% {
            transform: rotateZ(-15deg);
          }
          100% {
            transform: rotateZ(15deg);
          }
        }
</style>
<title>Tree_swing</title>
<g id="swing">
	<path id="rope1" class="st0" d="M587.8,589.2c-4.4,0-8-3.5-8-7.8V361.1c0-4.3,3.6-7.8,8-7.8c1.8,0,3.6,0.6,5.1,1.8l-1.3,1.5
		c-2.6-2-6.3-1.7-8.4,0.8c-0.9,1-1.3,2.4-1.3,3.7v220.3c0,3.2,2.7,5.9,6,5.9V589.2z"/>
	<path id="rope2" class="st0" d="M595.8,575.4h-2V361.1c0-1.8-0.8-3.4-2.2-4.6l1.3-1.5c1.9,1.5,3,3.7,2.9,6.1V575.4z"/>
	<rect id="swing_base" x="538.8" y="569.6" class="st1" width="98" height="18.6"/>
</g>
<path id="trunk" class="st0" d="M593.9,286.6c-39.3,20.1-90.8,37.4-106.2,42.4c11.8-3,46-7,98.9,25.3
	c66.6,40.7,137.8,13.6,137.8,13.6s-15.8,29.7-49.4,31.6c-33.6,1.9-121.3-52.3-151-36.8c-29.7,15.5-43.5-3.9-55.4,34.9
	c-11.9,38.7-33.6,144.6-8.6,204l25,59.4H342.8c0,0,51.4-134.3,23.1-216.9c-15.9-46.3-38.1-79.8-46.5-96.8
	c-4.2-8.5-4.8-12.9,0.6-12.7c3.1,0.1,8.1,1.7,15.6,4.9c0,0-34.3-32.9-45.5-32.9c-11.2,0-64-5.2-81.1-22.6c0,0-24.4-16.8-67.9,24.5
	s-33,41.3-71.9,38.1C30.9,343.4,0.9,325.3,0,324.7c1.1,0.4,45.8,17.9,73.2,9c27.7-9,51.4-43.3,75.8-54.9
	c24.4-11.6,38.9-27.1,71.9-10.3l-21.7-50.1l-6-13.7l0,0c0,0-7.3-94.2-21.1-100.7c-13.8-6.5-5.3-23.2-31-26.5c0,0,31.6-3.9,37.6,17.4
	c5.9,21.3,46.8,136.2,46.8,136.2s25,49,52.7,37.4c27.7-11.6-10.5-76.8-10.5-76.8l-47.5-21.3c0,0,35.6-1.3,57.4,18.7
	c21.8,20,23.1,84.6,23.1,84.6s54.7,7.7,67.9,36.8c0,0,8.6-25.8-7.9-41.3c-4.1-3.9-8.4-10.6-12.6-18.5
	c-15.8-30.4-21.5-64.9-16.3-98.6c2.5-16.5,4-32.7,1.3-36.5c-5.9-8.4-31-60-33-73.6c-2-13.6,2-41.9,2-41.9s0.7,34.8,8.6,45.8
	s30.3,65.2,30.3,65.2s0,68.4,18.5,102s54,71,52.1,95.5v14.2c0,0,39.6-36.8,36.9-49.1c-2.6-12.3-5.9-41.3-31-58.7
	c-25-17.4-41.5-45.2-23.7-85.2c10-22.5,14.4-34.6,16.3-40.9l-10.4,43.5c0,0-6.6,44.5,11.9,60c0,0,0.1,0.1,0.1,0.1
	c18.4,15.5,42.7,43.8,42.7,43.8l-0.1-1.2l-5.2-91.7l1.1,2.4l8.2,17.6l7.8,16.7c0,0,36.9-46.5,80.4-62C590,102.6,617,48.4,617,48.4
	L653.9,20l-30.3,35.5c0,0-9.2,41.9-61.3,71.6c-52.1,29.7-85.7,73.6-87.7,100.7s-4,51-4,51s97.6-3.2,119.3-45.2
	c21.8-41.9,39.6-43.9,39.6-43.9L617,225.9l-13.8,31c0,0,56.7,1.3,86.3,34.2C719.2,324,793,333.7,793,333.7l-41.5,11
	c0,0-39.6-12.9-77.1-36.8C636.8,284,640.7,262.7,593.9,286.6z"/>
<path id="shadow1" class="st2" d="M614.9,198.5c-4.2,18.1-9.1,35.5-16,48.8c-21.8,42-119.3,45.2-119.3,45.2s0.5-5.5,1.2-14.3
	c24.8-2,92.5-10.5,110.2-44.6c1.6-3.1,3.1-6.5,4.5-10L614.9,198.5z"/>
<path id="shadow2" class="st2" d="M463.2,250c0,0-24.4-28.4-42.8-43.9c-4-3.4-6.9-8.2-8.9-13.6c-0.2-0.4-0.3-0.9-0.5-1.3
	c0.4,0.4,0.9,0.8,1.3,1.2c16.2,13.6,36.9,37,41.8,42.7c0.7,0.8,1.1,1.2,1.1,1.2l-5.1-90.5l8.2,17.6L463.2,250z"/>
<path id="shadow3" class="st2" d="M477.3,168.5c-0.1,15.9-2.3,25.3-2.3,25.3s36.9-46.5,80.4-62c2.6-1.6,5.2-3.2,7.8-4.7
	c52.1-29.7,61.3-71.6,61.3-71.6L654.9,20L618,48.4c0,0-27,54.2-70.5,69.7C517.8,128.7,491.2,153.6,477.3,168.5z"/>
<path id="shadow4" class="st2" d="M420.3,322.2v14.2c0,0,39.6-36.8,36.9-49.1c-2-9.4-4.4-28.6-16.7-44.9c5.5,12.3,7.2,24.3,8.7,31.2
	c1.9,8.8-17.9,30.2-29.3,41.6C420.4,317.6,420.5,319.9,420.3,322.2z"/>
<path id="swingtrunk" class="st2" d="M587.7,354.4c-21.7-13.2-40.2-20.4-55.4-24c-15.9,5.9-29,10.2-35.5,12.4c11.8-3,46-7,98.9,25.4
	c41.5,25.4,84.8,24.4,111.6,20c7.4-5.5,13.6-12.3,18.2-20.2C725.4,367.9,654.2,395,587.7,354.4z"/>
<path id="shadow5" class="st2" d="M399.4,197.3c-5.3-12.8-6.2-27.9-0.1-45.7c-0.1-6.4,0.3-12.9,1.1-19.3l10.4-43.5
	c-1.9,6.3-6.3,18.4-16.3,40.9C381.8,158.3,386.6,180.6,399.4,197.3z"/>
<path id="shadow6" class="st2" d="M690.5,291.1c-20.6-22.8-54.1-30.4-72.8-33l-5.6,12.5c0,0,56.7,1.3,86.4,34.2
	c16.4,18.3,46.5,29.4,70,35.6l25.5-6.7C794,333.7,720.2,324,690.5,291.1z"/>
<path id="shadow7" class="st2" d="M287.2,282.2c27.7-11.6-10.5-76.8-10.5-76.8l-1-0.5c9.5,19.7,23.4,55.3,3.6,63.6
	c-18.5,7.8-35.8-11.5-45.3-25.2c0.3,1,0.5,1.5,0.5,1.5S259.5,293.8,287.2,282.2z"/>
<path id="shadow8" class="st2" d="M377.5,324.2c0,0,8.3-25.2-7.3-40.7c3.8,13.4-0.7,27-0.7,27c-10.2-22.5-45.2-32.2-60.6-35.4
	c0.6,7.5,0.7,12.4,0.7,12.4S364.3,295.1,377.5,324.2z"/>
<path id="shadow9" class="st2" d="M202.1,218.3c0,0-1.1,0-3,0l-6-13.7c0.6,0,1,0,1,0s-4.6-59.4-13.4-87.1c0.1,0,0.2,0.1,0.3,0.2
	C194.9,124.1,202.1,218.3,202.1,218.3z"/>
<path id="shadow10" class="st2" d="M356.6,661c12.1-36.3,41.1-136.5,18.3-203.2c-9.9-28.8-19-47.1-26.8-58.9
	c5.8,11.1,12.1,25.8,18.8,45.1c28.3,82.6-23.1,216.9-23.1,216.9H356.6z"/>
<path id="shadow11" class="st2" d="M344.5,353.2c-8-3.4-16.5-5.4-25.1-5.9c-4.2-8.5-4.8-12.9,0.6-12.7c1.5,0.3,3,0.6,4.5,0.9
	C335.1,344.1,344.5,353.2,344.5,353.2z"/>
<path id="shadow12" class="st2" d="M166.1,97.7c0.8,1.2,1.7,2.4,2.7,3.4C168,99.8,167.1,98.7,166.1,97.7z"/>
<path id="shadow13" class="st2" d="M286.5,202.8c1,0.9,2,2,2.9,3c-2.9-6.8-6.5-12.7-10.9-16.7c-21.8-20-57.3-18.7-57.3-18.7l44.6,20
	C273.4,193.2,280.5,197.4,286.5,202.8z"/>
<path id="shadow14" class="st2" d="M333.9,115.5c2.7,3.8,1.2,20-1.3,36.5c-5.2,33.7,0.5,68.2,16.3,98.6c2.1,4.1,4.4,8,7,11.8
	c-15.1-30-20.4-63.7-15.4-96.7c2.5-16.5,4-32.7,1.3-36.5c-5.9-8.4-31-60-33-73.6c-0.6-5.3-0.7-10.6-0.4-15.8
	C303.4,25.6,302.9,0,302.9,0s-4,28.4-2,42S327.9,107.1,333.9,115.5z"/>
<path id="shadow15" class="st2" d="M395.7,26.3c-0.3-1.3-0.7-2.5-1.2-3.7C394.5,22.6,395,24,395.7,26.3z"/>
<path id="shadow16" class="st2" d="M162.9,91.3c5.8,0.7,12.5,2.4,17.6,6.5c-0.3-1.1-0.6-2.1-0.9-2.9C173.7,73.6,142,77.5,142,77.5
	C156.3,79.3,160,85.2,162.9,91.3z"/>
<path id="leafgroundshadow" class="st0" d="M773.8,636.6c-9.8,14.8-7.1,33.5-7.1,33.5s18.6-5.2,28.5-19.9
	c9.8-14.8,7.1-33.5,7.1-33.5S783.7,621.8,773.8,636.6z"/>
<path id="leafground" class="st1" d="M781.2,639.2c-0.8,17.6-14.1,31.3-14.1,31.3s-12.1-14.8-11.3-32.4
	c0.8-17.6,14.1-31.3,14.1-31.3S782,621.6,781.2,639.2z"/>
<path id="leaf1" class="st0" d="M488.5,627.8c-9.8,14.8-7.1,33.5-7.1,33.5s18.6-5.2,28.5-19.9s7.1-33.5,7.1-33.5
	S498.3,613,488.5,627.8z"/>
<path id="leaf2" class="st1" d="M495.9,630.4c-0.8,17.6-14.1,31.3-14.1,31.3s-12.1-14.8-11.3-32.4s14.1-31.3,14.1-31.3
	S496.7,612.8,495.9,630.4z"/>
<path id="leaf3" class="st0" d="M325.6,637.9c5.5,17,24.3,27.5,24.3,27.5s9.9-17,4.4-34.1c-5.5-17-24.3-27.5-24.3-27.5
	S320.1,620.9,325.6,637.9z"/>
<path id="leaf4" class="st1" d="M336.9,634.2c12.9,12.3,14.5,31.2,14.5,31.2s-19.3-1-32.2-13.3c-12.9-12.3-14.5-31.2-14.5-31.2
	S324,621.9,336.9,634.2z"/>
<path id="leaf5" class="st1" d="M290.9,168.5c-1.1,17.6-14.7,31.1-14.7,31.1s-11.8-15-10.7-32.6s14.7-31.1,14.7-31.1
	S292,150.9,290.9,168.5z"/>
<path id="leaf6" class="st1" d="M149,57.3c15.2,9.4,20.8,27.6,20.8,27.6s-19.1,2.9-34.4-6.5s-20.8-27.6-20.8-27.6
	S133.7,47.9,149,57.3z"/>
<path id="leaf7" class="st1" d="M115,271.7c15.2,9.4,20.8,27.6,20.8,27.6s-19.1,2.9-34.4-6.5s-20.8-27.6-20.8-27.6
	S99.7,262.3,115,271.7z"/>
<path id="leaf8" class="st1" d="M424.5,88.6c-4.6,17-20.6,27.7-20.6,27.7s-8.6-17-4-34s20.6-27.7,20.6-27.7S429.1,71.6,424.5,88.6z"
	/>
<path id="leaf9" class="st1" d="M569.3,101.9c-5.4,16.8-21.9,26.7-21.9,26.7s-7.8-17.4-2.4-34.2S567,67.7,567,67.7
	S574.7,85.1,569.3,101.9z"/>
<title>annotation</title>
<g id="guy">
	<ellipse class="st2" cx="517.5" cy="351" rx="32" ry="6.1"/>
	<rect x="514.6" y="232.3" class="st0" width="5.4" height="44.6"/>
	<path class="st3" d="M498.3,209.8c1-0.8,2.1-1.5,3.3-1.9c7.5-3.2,15.3-5.1,23.4-5.8c6.9-0.6,14.4,0.1,19.9,5.1
		c0.9,0.7,1.5,1.6,2,2.7c0.7,1.7,0.5,3.6,0.3,5.4c0,0.7-0.2,1.4-0.5,2c-0.7,1.6-2.5,2.1-4.1,1.9c-1.5-0.2-3-0.9-4.6-1.3
		c-1-0.2-1.9-0.3-2.9-0.3l-9.7-0.6c-6-0.4-12.1-0.7-18,0.6c-1.8,0.4-3.6,1.1-5.2,2c-1.4,0.9-2.3,2.1-3.5,0.5
		C496.6,217.4,495.4,212.3,498.3,209.8z"/>
	<path class="st4" d="M513.2,214.6c0,0,13-6.6,17.9,1c4.9,7.6-2.7,4.5-2.7,4.5l-8.5,3l-9.4-2L513.2,214.6z"/>
	<path class="st5" d="M513.9,209.8c0,0,1.8,9.6,0.5,12.2s7.6,6.1,7.6,6.1l8.5-4.1c0,0-2.3-15.7,0-18.8L513.9,209.8z"/>
	<path class="st2" d="M513.9,209.8c0,0,1.8,9.6,0.5,12.2s7.6,6.1,7.6,6.1l8.5-4.1c0,0-2.3-15.7,0-18.8L513.9,209.8z"/>
	<path class="st5" d="M505.5,325.7c1.3,2.8,2.1,5.8,3,8.8c0,0.4,0.4,0.6,0.7,0.6c0,0,0,0,0.1,0h8c1,0,2.3-0.4,2.3-1.5
		c0-0.8-0.7-1.3-1.3-1.8c-1.5-1.4-1.8-3.7-2.4-5.8c-1.2-4-3.4-7.4-6.4-9.8c-0.4-0.4-0.9-0.6-1.4-0.8c-0.5-0.1-1,0-1.5,0.1
		c-1.4,0.3-6.6,1.4-5.6,3.7c0.4,1,2,2,2.6,3C504.3,323.3,505,324.5,505.5,325.7z"/>
	<path class="st5" d="M533.2,315.2c-0.3,0.6-0.6,1.3-0.9,1.9c-1.1,2.1-2.5,4.2-3.6,6.4c-0.7,1.4-1.3,2.9-1.3,4.4
		c-0.1,1.5,0.4,3.2,1.5,4.2c1.1,1,2.8,1.1,4.2,0.8s2.9-0.7,4.3-0.6c-0.5-3.1,1.8-5.9,2.4-9c0.2-0.9,0.2-1.8,0.4-2.6
		c0.3-0.8,0.5-1.5,0.9-2.3c1.1-2.6,2-5.3,2.4-8.1c0.1-0.3-7.1-0.4-7.8-0.2C533.7,310.7,534,313.3,533.2,315.2z"/>
	<path class="st3" d="M478.2,266.1c-2,3.6-1.6,8.4-0.1,12.4c1.4,4,3.7,7.5,5.3,11.4c1,2.5,1.7,5.1,2.8,7.5c1.4,3,3.4,5.6,4.3,8.8
		c0.6,2.1,0.7,4.3,1.7,6.2c0.6,1,1.3,1.9,2,2.8c2.1,2.7,3.6,5.8,4.5,9.2c0.9-3,3.5-4.9,6.2-5.6c2.7-0.6,5.5-0.2,8.2,0.2
		c-1.5-2.7-3.1-5.4-4-8.4c-0.9-2.9-1.1-6-1.7-9c-1.2-6.2-3.8-11.8-6.4-17.4l13.2-1.2c2.1-0.2,4.3-0.3,6.5-0.3
		c3.4,0.2,6.7,1.1,10.1,1.6c3.4,0.4,7,0.3,10-1.5c-5.8,9.4-8.8,20.6-8.6,32c4.8-4.2,11.6-3.2,15.3,2.2c0.5,0.7,0.9,1.4,1.2,2.2
		c5.2-8,4.5-19.1,8.7-27.9c0.9-1.8,1.9-3.5,2.8-5.2c1.8-3.5,3.1-7.3,4.4-11c1.1-3.3,2.3-7,1.2-10.3c-0.5-1.3-1.1-2.4-2-3.4
		c-2.4-3-5.7-5.1-9.2-5.2c-5.4-0.1-9.8,4.4-14.6,7.3c-5.6,3.4-12.1,4.8-18.4,4.3c-6.5-0.5-12.7-2.9-18.9-5.1c-3.1-1.1-6.3-2-9.4-2.8
		c-2.6-0.6-5.2,0.1-7.8,0.8C482.7,261.7,479.9,263.2,478.2,266.1z"/>
	<path class="st5" d="M534.5,200.2c0,8.4-6,15.2-13.4,15.2c-0.8,0-1.6-0.1-2.4-0.2c-7.3-1.5-12.2-9.4-10.8-17.7
		c1.3-8.3,8.3-13.8,15.6-12.3C529.9,186.5,534.5,192.8,534.5,200.2L534.5,200.2z"/>
	<path class="st4" d="M513.2,214.6c0,0,2.5,1.3,3.4,2.3s3.6,6.6,8,3c4.5-3.6,4.9-5.6,6.3-5.6s3.1,3,3.1,3l12.3,41.9
		c-3.3,4.3-7.2,7.9-11.4,10.9c-7.2,5.1-15.7,7.6-19.7,5.6c-4-2-11.6-3.6-13-7.6c-1.4-4.1-3.6-16.2-3.6-16.2L505,221L513.2,214.6z"/>
	<path class="st3" d="M511.5,257c1-2.4,1.1-5.1,1.2-7.7c0.1-2.6,0.1-5.2-0.2-7.8c-0.4-3.4-1.4-6.6-2-10c-0.5-3-0.8-5.9-0.8-8.9
		c0-1.4,0.1-2.8,0.8-4c0.5-0.8,1.2-1.4,1.5-2.3c0.6-1.7-0.8-3.6-2.4-4.3c-1.8-0.9-3.9-0.8-5.8-0.3c-1.9,0.5-3.7,1.5-5.4,2.5
		c-1.3,0.7-2.6,1.5-3.6,2.6c-1.4,1.6-2,3.9-2.5,6.1c-0.4,1.7-0.8,3.6-0.4,5.4c0.5,2.9,2.6,5.1,3.7,7.7c1.3,3.1,1.2,6.7,0.7,10.1
		c-0.5,3.4-1.4,6.6-1.7,10.1s0.1,7.1,2,9.7c0.8,1.1,2.9,3.7,4.3,3.4c1.1-0.2,2.7-3,3.6-3.9C507,262.8,510,260.6,511.5,257z"/>
	<path class="st3" d="M537.8,214.3c0,2.8-1.1,5.5-2.4,7.9c-1.3,2.4-2.8,4.7-3.8,7.3c-1.2,3.3-1.4,6.9-0.7,10.3
		c0.3,1.2,0.6,2.3,1,3.4l2.5,7.6c0.3,1.2,0.8,2.4,1.4,3.4c0.6,0.8,1.2,1.5,1.9,2.1c1.9,1.7,4,3,6.3,3.7c2.3,0.7,4.8,0.6,7-0.4
		c0.3-10.3,1.7-20.6,4.4-30.5c0.5-1.8,1-3.7,0.6-5.6c-0.4-2.1-1.9-3.6-3.3-5.1c-4.3-4.4-9-9-14.8-9.6
		C534.7,208.7,537.7,212.2,537.8,214.3z"/>
	<path class="st5" d="M505.6,272c0.4,0.8,0.5,1.6,0.9,2.4c0.5,1,1.1,1.9,1.8,2.8c3,3.8,6.7,7.5,11.1,7.7c0.4,0,0.9,0,1.3-0.2
		c0.8-0.4,1.3-1.3,1.4-2.3c0.3-1.9-0.5-3.9-1.2-5.7c-1.6-3.9-3.5-7.9-6.7-10.4c-3.1-2.5-7.2-3.1-10.7-1.8c-1.6,0.6-4.3,1.5-2.1,3.2
		C503,268.9,504.7,269.8,505.6,272z"/>
	<path class="st3" d="M508.3,333.3c-1.3,2.1-1.1,5-2.3,7.2c-1,1.9-3,2.9-4.2,4.5c-0.4,0.6-0.8,1.1-1.1,1.8c-1.2,2.3-2.1,5.1-1,7.4
		c0.9,1.8,2.9,2.6,4.7,3c2.3,0.6,4.7,1.1,7,0.6c2.3-0.4,4.6-2.1,5.4-4.6c0.2-0.6,0.4-1.3,0.6-1.9c1.3-2.8,5.2-2.8,6.5-5.6
		c0.9-1.9,0.1-4.3-0.8-6.3l-2.5-6.1c-0.8-2-4.3-0.9-6-1.3C512.4,331.5,510,330.8,508.3,333.3z"/>
	<path class="st3" d="M527.8,328.1c-1.1,0.9-1.8,2.2-2.3,3.6c-1.3,3.3-1.7,6.9-2.1,10.4c-0.2,1.4-0.3,2.9-0.1,4.3
		c0.5,2.9,2.9,5,5.3,5.9c2.5,0.9,5.2,0.7,7.8,0.6c0.8,0,1.7-0.1,2.4-0.6c1.3-0.8,1.8-2.8,1.6-4.4c-0.2-1.7-1-3.2-1.8-4.6
		s-1.6-2.9-1.8-4.6c-0.4-2.8,0.7-6.9-0.8-9.5C534.5,326.6,529.9,326.5,527.8,328.1z"/>
	<path class="st3" d="M534.2,192.2c-0.3-0.9-0.8-1.7-1.5-2.2c0-1-0.1-1.9-0.3-2.9c-0.8-2.7-2.8-2.6-4.5-3.8c-0.8-0.5-0.8-1-1.1-1.8
		c-0.5-1.1-1.4-2.1-2.3-2.7c-1.2-0.9-2.4-1.7-3.8-1.8c-2.9-0.2-5.1,2.9-7.9,3.9c-1.2,0.4-2.5,0.4-3.8,0.9c-1.2,0.4-2.5,1.4-2.6,2.8
		c-0.1,0.6,0.1,1.3,0,2c-0.2,1.3-1.2,2.2-1.9,3.3c-1.5,2.4-1.3,5.8-0.1,8.4c0.3,0.5,0.5,1.1,0.9,1.5c0.1,1.2,0.4,2.4,0.9,3.5
		c1.2,2.6,3.3,4.5,5.5,6.2c-0.2-0.9-0.3-1.7-0.3-2.6c0-0.3,0-0.6,0.1-0.9c0.3-0.6,0.9-0.7,1.4-1.1c1-0.6,1.4-2.1,1.4-3.4
		c0-1.3-0.2-2.6-0.1-3.9c0-0.6,0.3-1.2,0.6-1.6c0.4-0.2,0.8-0.4,1.2-0.3c2.1-0.1,4.2-0.1,6-1.3c0.6-0.4,1.2-0.9,1.9-1.1
		c1.5-0.4,3.1,0.8,4,2.3s1.3,3.3,2.1,4.9s2.3,3,3.8,2.8c0.2,0,0.4-0.1,0.5-0.2c0.1-0.1,0.1-0.3,0.1-0.4l0.1-6.9
		C534.6,194.6,534.5,193.3,534.2,192.2z"/>
	<path class="st3" d="M491.7,228.3c-1.3,2.1-2.8,4.2-3.5,6.6c-0.4,1.5-0.5,3-0.9,4.5c-1,4.9-3.9,9.3-4.2,14.4
		c-0.1,1.1,0,2.3,0.4,3.3c0.8,2,2.8,3.1,4.7,3.8c1.9,0.7,3.9,1.2,5.4,2.6c0.8,0.8,1.4,1.7,2,2.7c2.5,3.5,5.8,6,9.5,7.4
		c-0.3-2.3-0.4-5.1,1.2-6.5c0.9-0.8,2.1-0.9,3.2-1l5.3-0.5c-3.5-3.9-7.4-7.3-11.5-10.1c-1.5-1-3-2.1-3.7-3.9
		c-0.4-1.1-0.4-2.4-0.4-3.6c0-4.4-0.4-8.8-1-13.2c-0.4-3-1-6-1.6-9c-0.2-0.9-1.3-4.6-2.6-3.7c-0.3,0.2-0.6,2.6-0.8,3.1
		C492.8,226.3,492.3,227.3,491.7,228.3z"/>
	<path class="st2" d="M498.9,234.8c0.1,3.6-0.6,7.1-2,10.4c-0.4,0.7-0.6,1.5-0.8,2.3c-0.3,1.7,0.6,3.4,1.6,4.7
		c1.9,2.6,4.4,4.6,7.3,5.7"/>
	<path class="st2" d="M545.4,231.8c-0.3,1,0,2,0.2,3c0.7,2.9,1,5.8,1,8.8c0,0.2-0.1,0.3-0.2,0.4c0,0-0.1,0-0.1,0
		c-1,0.1-2.2,0.1-2.9-0.8"/>
	<path class="st3" d="M554.4,227.3l2.8,1.3v7.2c0,0,2.1-0.2,1.6,0.6c-0.5,0.8-1.5,1.2-0.6,1.9c0.9,0.7,0.7,2.1-0.1,2.2
		c-0.8,0.2-2.3,0.7-0.9,1.1c1.3,0.4,2.1,1,2.1,1.4c0,0.4,0.1,1.1-0.4,1.6s-1,1.6-0.4,2.1c0.6,0.4-0.5,2.6-0.5,2.6s2,3.5,0.1,4.5
		c0,0-0.8,2-0.9,2.1c0,0,1.3-6.9-11.7-4c0,0-0.3-2.6-0.3-3.6c-0.1-1,1.1-1.3,0.5-1.9c-0.7-0.6-2.3-1.9-1.5-2.3s0.5-1,0.2-1.5
		c-0.3-0.5-1.4-0.5-0.4-1.1c1-0.6,1.6-1.2,1-1.5c-0.6-0.3-1.6-1.2-0.8-1.6c0.8-0.4,0.8-6.6,0.8-6.6S548.2,222.8,554.4,227.3z"/>
	<path class="st6" d="M558.8,254.3l-0.8,3.6c0,0-8.1,11.2-9.6,11.4c-1.5,0.2-9.5-7.5-9.5-7.5l-2.1-7.5l8.4-1.2l3.8-2.8
		C548.9,250.3,558.4,251,558.8,254.3z"/>
	<path class="st7" d="M496.6,253.9h49c1.4,0,2.5,1.1,2.5,2.5v25.5c0,1.4-1.1,2.5-2.5,2.5h-49c-1.4,0-2.5-1.1-2.5-2.5v-25.5
		C494,255,495.2,253.9,496.6,253.9z"/>
</g>
<path id="ground" class="st0" d="M846.7,675.2c0-1.7-186.5-14.2-406.2-14.2S37.3,673.4,37.3,675.2s186.5,0,406.2,0
	S846.7,676.9,846.7,675.2z"/>
<path id="leaf10" class="st1" d="M671.7,269.4c-16,8.4-34.8,3.8-34.8,3.8s7.1-18.1,23.1-26.4c16-8.4,34.8-3.8,34.8-3.8
	S687.7,261.1,671.7,269.4z"/>
</svg>
